MFile 1 4 192
MTrk
0 Meta SeqName "1080"
0 Meta Text "Generated by dayepa, I love Bach"
0 Tempo 500000
0 TimeSig 1/8 24 8
96 TimeSig 4/4 24 8
96 Meta TrkEnd
TrkEnd
MTrk
0 Meta 0x21 00
0 Meta TrkName "Sequence"
0 Par ch=1 c=7 v=127
0 Par ch=1 c=10 v=64
0 On ch=1 n=72 v=110
94 On ch=1 n=72 v=0
96 On ch=1 n=60 v=110
256 On ch=1 n=60 v=0
288 On ch=1 n=72 v=110
448 On ch=1 n=72 v=0
480 On ch=1 n=60 v=110
640 On ch=1 n=60 v=0
672 On ch=1 n=64 v=110
766 On ch=1 n=64 v=0
768 On ch=1 n=72 v=110
862 On ch=1 n=72 v=0
864 On ch=1 n=78 v=110
1024 On ch=1 n=78 v=0
1056 On ch=1 n=66 v=110
1216 On ch=1 n=66 v=0
1248 On ch=1 n=74 v=110
1408 On ch=1 n=74 v=0
1440 On ch=1 n=72 v=110
1600 On ch=1 n=72 v=0
1632 On ch=1 n=60 v=110
1792 On ch=1 n=60 v=0
1824 On ch=1 n=72 v=110
1984 On ch=1 n=72 v=0
2016 On ch=1 n=60 v=110
2176 On ch=1 n=60 v=0
2208 On ch=1 n=63 v=110
2302 On ch=1 n=63 v=0
2304 On ch=1 n=67 v=110
2398 On ch=1 n=67 v=0
2400 On ch=1 n=73 v=110
2560 On ch=1 n=73 v=0
2592 On ch=1 n=61 v=110
2752 On ch=1 n=61 v=0
2784 On ch=1 n=65 v=110
2878 On ch=1 n=65 v=0
2880 On ch=1 n=66 v=110
2974 On ch=1 n=66 v=0
2976 On ch=1 n=72 v=110
3136 On ch=1 n=72 v=0
3168 On ch=1 n=80 v=110
3328 On ch=1 n=80 v=0
3360 On ch=1 n=68 v=110
3520 On ch=1 n=68 v=0
3552 On ch=1 n=80 v=110
3712 On ch=1 n=80 v=0
3744 On ch=1 n=78 v=110
3904 On ch=1 n=78 v=0
3936 On ch=1 n=66 v=110
4030 On ch=1 n=66 v=0
4032 On ch=1 n=74 v=110
4126 On ch=1 n=74 v=0
4128 On ch=1 n=62 v=110
4288 On ch=1 n=62 v=0
4320 On ch=1 n=74 v=110
4480 On ch=1 n=74 v=0
4512 On ch=1 n=72 v=110
4672 On ch=1 n=72 v=0
4704 On ch=1 n=70 v=110
4864 On ch=1 n=70 v=0
4896 On ch=1 n=69 v=110
5056 On ch=1 n=69 v=0
5088 On ch=1 n=81 v=110
5248 On ch=1 n=81 v=0
5280 On ch=1 n=69 v=110
5440 On ch=1 n=69 v=0
5472 On ch=1 n=81 v=110
5632 On ch=1 n=81 v=0
5664 On ch=1 n=77 v=110
5758 On ch=1 n=77 v=0
5760 On ch=1 n=81 v=110
5854 On ch=1 n=81 v=0
5856 On ch=1 n=69 v=110
5950 On ch=1 n=69 v=0
5952 On ch=1 n=74 v=110
6046 On ch=1 n=74 v=0
6048 On ch=1 n=62 v=110
6208 On ch=1 n=62 v=0
6240 On ch=1 n=71 v=110
6400 On ch=1 n=71 v=0
6432 On ch=1 n=69 v=110
6592 On ch=1 n=69 v=0
6624 On ch=1 n=67 v=110
6784 On ch=1 n=67 v=0
6816 On ch=1 n=65 v=110
6976 On ch=1 n=65 v=0
7008 On ch=1 n=77 v=110
7168 On ch=1 n=77 v=0
7200 On ch=1 n=65 v=110
7360 On ch=1 n=65 v=0
7392 On ch=1 n=77 v=110
7552 On ch=1 n=77 v=0
7584 On ch=1 n=65 v=110
7744 On ch=1 n=65 v=0
7776 On ch=1 n=77 v=110
7936 On ch=1 n=77 v=0
7968 On ch=1 n=74 v=110
8062 On ch=1 n=74 v=0
8064 On ch=1 n=82 v=110
8158 On ch=1 n=82 v=0
8160 On ch=1 n=70 v=110
8254 On ch=1 n=70 v=0
8256 On ch=1 n=76 v=110
8350 On ch=1 n=76 v=0
8352 On ch=1 n=64 v=110
8512 On ch=1 n=64 v=0
8544 On ch=1 n=67 v=110
8638 On ch=1 n=67 v=0
8640 On ch=1 n=69 v=110
8734 On ch=1 n=69 v=0
8736 On ch=1 n=64 v=110
8896 On ch=1 n=64 v=0
8928 On ch=1 n=72 v=110
9088 On ch=1 n=72 v=0
9120 On ch=1 n=72 v=110
9280 On ch=1 n=72 v=0
9312 On ch=1 n=72 v=110
9472 On ch=1 n=72 v=0
9504 On ch=1 n=72 v=110
9664 On ch=1 n=72 v=0
9696 On ch=1 n=69 v=110
9790 On ch=1 n=69 v=0
9792 On ch=1 n=75 v=110
9886 On ch=1 n=75 v=0
9888 On ch=1 n=70 v=110
10048 On ch=1 n=70 v=0
10080 On ch=1 n=79 v=110
10240 On ch=1 n=79 v=0
10272 On ch=1 n=67 v=110
10432 On ch=1 n=67 v=0
10464 On ch=1 n=81 v=110
10624 On ch=1 n=81 v=0
10656 On ch=1 n=79 v=110
10816 On ch=1 n=79 v=0
10848 On ch=1 n=75 v=110
10942 On ch=1 n=75 v=0
10944 On ch=1 n=77 v=110
11038 On ch=1 n=77 v=0
11040 On ch=1 n=72 v=110
11200 On ch=1 n=72 v=0
11232 On ch=1 n=60 v=110
11326 On ch=1 n=60 v=0
11328 On ch=1 n=68 v=110
11422 On ch=1 n=68 v=0
11424 On ch=1 n=56 v=110
11584 On ch=1 n=56 v=0
11616 On ch=1 n=72 v=110
11776 On ch=1 n=72 v=0
11808 On ch=1 n=60 v=110
11968 On ch=1 n=60 v=0
12000 On ch=1 n=73 v=110
12160 On ch=1 n=73 v=0
12192 On ch=1 n=71 v=110
12352 On ch=1 n=71 v=0
12384 On ch=1 n=67 v=110
12478 On ch=1 n=67 v=0
12480 On ch=1 n=72 v=110
12574 On ch=1 n=72 v=0
12576 On ch=1 n=67 v=110
12736 On ch=1 n=67 v=0
12768 On ch=1 n=63 v=110
12862 On ch=1 n=63 v=0
12864 On ch=1 n=70 v=110
12958 On ch=1 n=70 v=0
12960 On ch=1 n=64 v=110
13120 On ch=1 n=64 v=0
13152 On ch=1 n=67 v=110
13246 On ch=1 n=67 v=0
13248 On ch=1 n=74 v=110
13342 On ch=1 n=74 v=0
13344 On ch=1 n=69 v=110
13504 On ch=1 n=69 v=0
13536 On ch=1 n=77 v=110
13696 On ch=1 n=77 v=0
13696 Meta TrkEnd
TrkEnd
MTrk
0 Meta 0x21 00
0 Meta TrkName "Sequence-2"
0 Par ch=2 c=7 v=127
0 Par ch=2 c=10 v=64
0 On ch=2 n=48 v=110
94 On ch=2 n=48 v=0
96 On ch=2 n=45 v=110
190 On ch=2 n=45 v=0
192 On ch=2 n=54 v=110
286 On ch=2 n=54 v=0
288 On ch=2 n=42 v=110
382 On ch=2 n=42 v=0
384 On ch=2 n=48 v=110
478 On ch=2 n=48 v=0
480 On ch=2 n=55 v=110
640 On ch=2 n=55 v=0
672 On ch=2 n=52 v=110
766 On ch=2 n=52 v=0
768 On ch=2 n=53 v=110
862 On ch=2 n=53 v=0
864 On ch=2 n=47 v=110
1024 On ch=2 n=47 v=0
1056 On ch=2 n=40 v=110
1216 On ch=2 n=40 v=0
1248 On ch=2 n=41 v=110
1408 On ch=2 n=41 v=0
1440 On ch=2 n=41 v=110
1600 On ch=2 n=41 v=0
1632 On ch=2 n=45 v=110
1726 On ch=2 n=45 v=0
1728 On ch=2 n=52 v=110
1822 On ch=2 n=52 v=0
1824 On ch=2 n=58 v=110
1984 On ch=2 n=58 v=0
2016 On ch=2 n=46 v=110
2110 On ch=2 n=46 v=0
2112 On ch=2 n=53 v=110
2206 On ch=2 n=53 v=0
2208 On ch=2 n=49 v=110
2302 On ch=2 n=49 v=0
2304 On ch=2 n=50 v=110
2398 On ch=2 n=50 v=0
2400 On ch=2 n=44 v=110
2560 On ch=2 n=44 v=0
2592 On ch=2 n=37 v=110
2752 On ch=2 n=37 v=0
2784 On ch=2 n=49 v=110
2944 On ch=2 n=49 v=0
2976 On ch=2 n=37 v=110
3136 On ch=2 n=37 v=0
3168 On ch=2 n=39 v=110
3328 On ch=2 n=39 v=0
3360 On ch=2 n=42 v=110
3454 On ch=2 n=42 v=0
3456 On ch=2 n=49 v=110
3550 On ch=2 n=49 v=0
3552 On ch=2 n=54 v=110
3712 On ch=2 n=54 v=0
3744 On ch=2 n=42 v=110
3838 On ch=2 n=42 v=0
3840 On ch=2 n=50 v=110
3934 On ch=2 n=50 v=0
3936 On ch=2 n=52 v=110
4096 On ch=2 n=52 v=0
4128 On ch=2 n=48 v=110
4222 On ch=2 n=48 v=0
4224 On ch=2 n=51 v=110
4318 On ch=2 n=51 v=0
4320 On ch=2 n=57 v=110
4480 On ch=2 n=57 v=0
4512 On ch=2 n=45 v=110
4606 On ch=2 n=45 v=0
4608 On ch=2 n=54 v=110
4702 On ch=2 n=54 v=0
4704 On ch=2 n=54 v=110
4864 On ch=2 n=54 v=0
4896 On ch=2 n=54 v=110
5056 On ch=2 n=54 v=0
5088 On ch=2 n=50 v=110
5182 On ch=2 n=50 v=0
5184 On ch=2 n=58 v=110
5278 On ch=2 n=58 v=0
5280 On ch=2 n=46 v=110
5374 On ch=2 n=46 v=0
5376 On ch=2 n=51 v=110
5470 On ch=2 n=51 v=0
5472 On ch=2 n=58 v=110
5632 On ch=2 n=58 v=0
5664 On ch=2 n=54 v=110
5758 On ch=2 n=54 v=0
5760 On ch=2 n=55 v=110
5854 On ch=2 n=55 v=0
5856 On ch=2 n=49 v=110
6016 On ch=2 n=49 v=0
6048 On ch=2 n=42 v=110
6208 On ch=2 n=42 v=0
6240 On ch=2 n=44 v=110
6400 On ch=2 n=44 v=0
6432 On ch=2 n=44 v=110
6592 On ch=2 n=44 v=0
6624 On ch=2 n=44 v=110
6784 On ch=2 n=44 v=0
6816 On ch=2 n=44 v=110
6976 On ch=2 n=44 v=0
7008 On ch=2 n=48 v=110
7102 On ch=2 n=48 v=0
7104 On ch=2 n=57 v=110
7198 On ch=2 n=57 v=0
7200 On ch=2 n=45 v=110
7294 On ch=2 n=45 v=0
7296 On ch=2 n=50 v=110
7390 On ch=2 n=50 v=0
7392 On ch=2 n=46 v=110
7486 On ch=2 n=46 v=0
7488 On ch=2 n=47 v=110
7582 On ch=2 n=47 v=0
7584 On ch=2 n=52 v=110
7744 On ch=2 n=52 v=0
7776 On ch=2 n=59 v=110
7936 On ch=2 n=59 v=0
7968 On ch=2 n=56 v=110
8062 On ch=2 n=56 v=0
8064 On ch=2 n=57 v=110
8158 On ch=2 n=57 v=0
8160 On ch=2 n=51 v=110
8320 On ch=2 n=51 v=0
8352 On ch=2 n=44 v=110
8512 On ch=2 n=44 v=0
8544 On ch=2 n=56 v=110
8704 On ch=2 n=56 v=0
8736 On ch=2 n=44 v=110
8896 On ch=2 n=44 v=0
8928 On ch=2 n=45 v=110
9088 On ch=2 n=45 v=0
9120 On ch=2 n=47 v=110
9280 On ch=2 n=47 v=0
9312 On ch=2 n=48 v=110
9472 On ch=2 n=48 v=0
9504 On ch=2 n=49 v=110
9664 On ch=2 n=49 v=0
9696 On ch=2 n=37 v=110
9856 On ch=2 n=37 v=0
9888 On ch=2 n=49 v=110
10048 On ch=2 n=49 v=0
10080 On ch=2 n=51 v=110
10240 On ch=2 n=51 v=0
10272 On ch=2 n=48 v=110
10366 On ch=2 n=48 v=0
10368 On ch=2 n=50 v=110
10462 On ch=2 n=50 v=0
10464 On ch=2 n=56 v=110
10624 On ch=2 n=56 v=0
10656 On ch=2 n=44 v=110
10750 On ch=2 n=44 v=0
10752 On ch=2 n=53 v=110
10846 On ch=2 n=53 v=0
10848 On ch=2 n=41 v=110
11008 On ch=2 n=41 v=0
11040 On ch=2 n=53 v=110
11200 On ch=2 n=53 v=0
11232 On ch=2 n=54 v=110
11392 On ch=2 n=54 v=0
11424 On ch=2 n=50 v=110
11518 On ch=2 n=50 v=0
11520 On ch=2 n=55 v=110
11614 On ch=2 n=55 v=0
11616 On ch=2 n=45 v=110
11710 On ch=2 n=45 v=0
11712 On ch=2 n=50 v=110
11806 On ch=2 n=50 v=0
11808 On ch=2 n=47 v=110
11902 On ch=2 n=47 v=0
11904 On ch=2 n=53 v=110
11998 On ch=2 n=53 v=0
12000 On ch=2 n=59 v=110
12160 On ch=2 n=59 v=0
12192 On ch=2 n=45 v=110
12286 On ch=2 n=45 v=0
12288 On ch=2 n=53 v=110
12382 On ch=2 n=53 v=0
12384 On ch=2 n=41 v=110
12544 On ch=2 n=41 v=0
12576 On ch=2 n=52 v=110
12736 On ch=2 n=52 v=0
12768 On ch=2 n=40 v=110
12928 On ch=2 n=40 v=0
12960 On ch=2 n=53 v=110
13120 On ch=2 n=53 v=0
13152 On ch=2 n=40 v=110
13312 On ch=2 n=40 v=0
13344 On ch=2 n=55 v=110
13504 On ch=2 n=55 v=0
13536 On ch=2 n=55 v=110
13696 On ch=2 n=55 v=0
13696 Meta TrkEnd
TrkEnd
MTrk
0 Meta 0x21 00
0 Meta TrkName "Tempo Track"
0 Par ch=1 c=7 v=127
0 Par ch=1 c=10 v=64
0 Meta TrkEnd
TrkEnd
